<svg xmlns="http://www.w3.org/2000/svg" width="50" height="50" fill="none"><path fill="#8E413A" d="M27.487.094C23.975.289 20.385 1.119 17.52 2.4c-.548.246-1.693.83-2.544 1.302-.861.471-3.297 1.793-5.42 2.941C7.422 7.791 5.28 9.021 4.781 9.38c-1.047.759-2.416 2.142-3.062 3.106-2.426 3.577-2.28 7.595.41 11.1.363.472.96 1.128 1.341 1.466l.695.605.058 24.292L35.685 50l5.058-2.706 5.058-2.716.098-23.657.86-.85c1.547-1.528 2.574-3.219 3.014-4.972.284-1.107.303-3.064.049-4.1-1.057-4.233-5.293-7.861-11.319-9.675C36.136.606 33.944.237 31.166.084 30.119.032 29.199-.01 29.12.002c-.078 0-.812.05-1.634.092Zm6.281 3.454c3.894.635 7.005 1.783 9.44 3.485 1.057.748 2.485 2.234 2.965 3.095 1.027 1.856 1.037 3.916.03 5.668-.9 1.569-2.114 2.686-4.012 3.68l-1.35.707.059-.338c.235-1.414.284-2.204.176-3.095C40.332 10.58 33.2 5.823 23.349 4.9a31.182 31.182 0 0 0-2.103-.103c-1.135-.01-1.096-.082.264-.46 1.428-.4 3.15-.739 4.432-.872a30.007 30.007 0 0 0 1.37-.154c.107-.02 1.32-.02 2.69 0 1.868.02 2.807.082 3.766.236Zm-11.182 4.54c2.661.185 4.774.605 6.985 1.374 4.54 1.568 7.504 4.049 8.325 6.94.304 1.075.167 2.47-.352 3.679-.45 1.045-1.849 2.644-3.11 3.567l-.617.45V46.72H7.305V24.1l-.607-.451c-.802-.574-1.946-1.732-2.484-2.49-1.272-1.784-1.497-3.855-.607-5.74.147-.329.43-.82.607-1.077.518-.728 1.8-1.988 2.553-2.49.988-.667 3.473-1.948 4.51-2.317 3.424-1.24 7.337-1.732 11.309-1.445ZM42.7 32.74l-.03 9.902-2.856 1.537-2.867 1.538V25.862l2.818-1.507c1.546-.82 2.837-1.507 2.886-1.507.04-.01.059 4.449.049 9.891Z"/><path fill="#8E413A" d="M16.54 11.902c-.02.071-.03.707-.02 1.414l.03 1.271h2.641V11.82l-1.3-.031c-1.008-.02-1.312 0-1.35.113ZM26.675 17.816h2.642v-2.768h-2.642v2.768ZM9.066 20.276h2.641v-2.768H9.066v2.768ZM18.555 25.298h2.642v-2.767h-2.642v2.767ZM26.871 30.833h2.74v-2.767h-2.74v2.767ZM11.316 32.268h2.641V29.5h-2.641v2.768ZM20.414 36.88h2.642v-2.767h-2.642v2.767ZM12.686 43.44h2.641v-2.767h-2.641v2.767ZM28.24 43.953h2.642v-2.768h-2.641v2.768Z"/></svg>