<svg xmlns="http://www.w3.org/2000/svg" width="40" height="50" fill="none"><path fill="#8E413A" d="M18.812 1.084c-3.332 3.3-4.457 6.484-3.137 8.867.39.703 1.482 1.66 2.196 1.924l.497.185v2.686h-4.002c-3.213 0-4.176.03-4.847.156-4.089.752-6.35 4.717-4.619 8.135.151.283.27.537.27.547 0 .01-.346.127-.768.244-1.016.293-2.282 1.074-2.942 1.807-1.082 1.21-1.536 2.51-1.45 4.101.109 1.944 1.093 3.516 2.867 4.58l.725.43 1.07 7.315c.585 4.013 1.093 7.45 1.126 7.627l.054.312H34.13l.054-.322c.032-.166.54-3.604 1.125-7.617l1.071-7.315.725-.43c3.84-2.304 3.862-7.48.054-9.775a8.052 8.052 0 0 0-1.58-.713c-.465-.127-.757-.264-.724-.332.865-1.748 1.017-2.842.606-4.297-.303-1.094-.79-1.855-1.731-2.705-.606-.556-1.017-.83-1.623-1.094-1.396-.595-1.969-.654-6.49-.654h-4.003V12.06l.497-.185c.65-.234 1.688-1.113 2.099-1.758 1.147-1.826.725-4.306-1.19-6.924C22.317 2.236 20.197 0 19.99 0c-.053 0-.583.488-1.178 1.084Zm1.58 3.818c.886 1.328 1.33 2.588 1.178 3.33-.227 1.104-1.871 1.524-2.737.694-.584-.557-.595-1.348-.064-2.578.292-.645 1.103-1.953 1.222-1.953.032 0 .216.234.4.507Zm10.222 13.096c.66.293 1.136.723 1.515 1.367.357.586.357 1.895 0 2.48-.379.645-.855 1.075-1.515 1.368l-.617.273H9.984l-.616-.273c-1.363-.606-2.11-2.05-1.72-3.36.281-.927 1.233-1.787 2.282-2.05.368-.088 2.78-.108 10.277-.098l9.79.02.617.273Zm4.046 8.633c.725.224 1.666 1.074 1.915 1.728.562 1.475-.184 3.096-1.699 3.73l-.551.235H5.657l-.54-.234c-1.537-.645-2.272-2.256-1.71-3.73.238-.626 1.19-1.505 1.872-1.73.432-.136 2.012-.155 14.669-.155 12.992-.01 14.225 0 14.712.156Zm-23.756 8.72c0 .196.746 10.323.811 11.006l.076.713H8.686l-.844-5.742c-.465-3.154-.832-5.81-.832-5.908 0-.156.162-.166 1.947-.166 1.222 0 1.947.039 1.947.098Zm7.464 11.72h-1.676c-.92 0-1.677-.03-1.677-.079 0-.039-.195-2.666-.433-5.83-.238-3.174-.433-5.79-.433-5.84 0-.039.952-.068 2.11-.068h2.11V47.07Zm7.465-11.749c0 .05-.195 2.666-.433 5.84a1578.32 1578.32 0 0 0-.433 5.83c0 .049-.757.078-1.677.078h-1.676V35.254h2.11c1.157 0 2.109.03 2.109.068Zm7.14.098c0 .098-.368 2.754-.834 5.908l-.843 5.742H28.19l.076-.713c.064-.683.81-10.81.81-11.005 0-.059.726-.098 1.948-.098 1.785 0 1.947.01 1.947.166Z"/></svg>