<svg xmlns="http://www.w3.org/2000/svg" width="40" height="40" fill="none"><path fill="#8E413A" d="M2.222 40c-.63 0-1.157-.193-1.583-.58A1.864 1.864 0 0 1 0 37.982V26.936c0-.841.324-1.556.972-2.144.648-.589 1.435-.883 2.361-.883h1.5v-9.18c0-.84.324-1.555.973-2.144.648-.588 1.435-.883 2.36-.883h10.167V8.474c-.74-.47-1.305-.983-1.694-1.538s-.583-1.22-.583-1.993c0-.504.101-.983.305-1.437.204-.454.49-.85.861-1.186L19.39.252C19.426.22 19.629.135 20 0c.074 0 .278.084.611.252l2.167 2.068c.37.337.666.732.889 1.186.222.454.333.933.333 1.437 0 .774-.204 1.438-.611 1.993-.407.555-.982 1.067-1.722 1.538v3.228h10.166c.926 0 1.713.295 2.361.883.649.589.973 1.303.973 2.144v9.18h1.5c.926 0 1.713.294 2.36.883.649.588.973 1.303.973 2.144v11.046c0 .572-.213 1.051-.639 1.438-.426.387-.954.58-1.583.58H2.222Zm5.945-16.09h23.666v-9.181H8.167v9.18ZM3.333 36.973h33.334V26.936H3.333v10.038Z"/></svg>