<svg xmlns="http://www.w3.org/2000/svg" width="40" height="40" fill="none"><path fill="#8E413A" d="M15.667 33.222c-4.26 0-7.936-1.509-11.028-4.528C1.546 25.676 0 22.093 0 17.944V3.334C0 2.443.333 1.666 1 1s1.444-1 2.333-1h29.39c2 0 3.712.685 5.138 2.056C39.287 3.426 40 5.11 40 7.11c0 2-.713 3.685-2.139 5.056-1.426 1.37-3.139 2.055-5.139 2.055h-1.389v3.722c0 4.149-1.546 7.732-4.639 10.75-3.092 3.019-6.768 4.528-11.027 4.528ZM3.333 10.89H28V3.333H3.333v7.556Zm12.334 19c3.37 0 6.268-1.176 8.694-3.528C26.787 24.01 28 21.204 28 17.944v-3.722H3.333v3.722c0 3.26 1.213 6.065 3.64 8.417 2.425 2.352 5.323 3.528 8.694 3.528Zm15.666-19h1.39c1.073 0 2-.361 2.777-1.083.778-.723 1.167-1.62 1.167-2.695 0-1.074-.39-1.972-1.167-2.694-.778-.723-1.704-1.084-2.778-1.084h-1.389v7.556ZM1.667 40c-.482 0-.88-.157-1.195-.472C.157 39.213 0 38.815 0 38.333c0-.481.157-.88.472-1.194.315-.315.713-.472 1.195-.472h31.889c.481 0 .88.157 1.194.472.315.315.472.713.472 1.194 0 .482-.157.88-.472 1.195-.315.315-.713.472-1.194.472H1.666Z"/></svg>