<svg xmlns="http://www.w3.org/2000/svg" width="50" height="50" fill="none"><path fill="#8E413A" d="m14.825 1.175-.761 1.166.342.401c.585.696.683 1.646.224 2.38-.107.187-.478.569-.81.843-1.357 1.126-1.981 2.41-1.981 4.104 0 1.341.527 2.585 1.493 3.565.322.313.615.568.664.548.048-.02.439-.558.868-1.205l.781-1.165-.293-.304a2.122 2.122 0 0 1-.585-1.498c0-.656.215-1.127.703-1.567 1.6-1.42 2.127-2.263 2.342-3.693.205-1.488-.322-3.075-1.406-4.172C16.094.255 15.782 0 15.723 0c-.068 0-.468.529-.898 1.175ZM22.145 1.175l-.761 1.166.342.401c.585.696.683 1.646.224 2.38-.107.187-.478.569-.81.843-1.357 1.126-1.981 2.41-1.981 4.104 0 1.341.527 2.585 1.493 3.565.322.313.615.568.664.548.048-.02.439-.558.868-1.205l.781-1.165-.293-.304a2.122 2.122 0 0 1-.585-1.498c0-.656.214-1.127.702-1.567 1.601-1.42 2.128-2.263 2.343-3.693.205-1.488-.322-3.075-1.406-4.172C23.414.255 23.102 0 23.043 0c-.068 0-.468.529-.898 1.175ZM29.563 1.175l-.761 1.166.341.401c.586.696.683 1.646.225 2.38-.108.187-.479.569-.81.843-1.357 1.126-1.982 2.41-1.982 4.104 0 1.341.527 2.585 1.494 3.565.322.313.614.568.663.548.049-.02.44-.558.869-1.205l.78-1.165-.292-.304a2.122 2.122 0 0 1-.586-1.498c0-.656.215-1.127.703-1.567 1.6-1.42 2.128-2.263 2.342-3.693.205-1.488-.322-3.075-1.405-4.172C30.83.255 30.519 0 30.46 0c-.069 0-.469.529-.898 1.175ZM2.957 21.763c0 4.398.059 5.328.43 7.13.927 4.466 3.591 8.658 7.242 11.381.38.284.82.617.976.735l.283.215H5.944L0 41.234l.059 1.4c.039 1.137.097 1.529.302 2.175.82 2.527 2.762 4.368 5.31 5.025.605.156 1.786.166 16.416.166s15.81-.01 16.416-.166c2.547-.657 4.49-2.498 5.31-5.025.204-.646.263-1.038.302-2.174l.058-1.4-5.943-.01h-5.944l.283-.216c.156-.118.595-.45.976-.735.38-.284 1.054-.842 1.493-1.244l.8-.734h2.01c2.343 0 3.553-.118 4.725-.45 3.201-.931 5.787-3.419 6.851-6.602.527-1.587.576-2.174.576-6.64v-4.036h-8.784V17.63H2.957v4.133Zm35.302 1.91c-.049 3.3-.127 3.996-.596 5.661-.985 3.506-3.2 6.69-6.119 8.795-1.913 1.381-4.665 2.508-6.959 2.87-1.288.206-3.709.206-4.997 0-2.293-.362-5.046-1.489-6.959-2.87-2.918-2.105-5.133-5.289-6.12-8.795-.468-1.665-.546-2.36-.595-5.661l-.048-3.105h32.442l-.05 3.105Zm8.784 2.693c-.04 3.027-.059 3.183-.566 4.437-.742 1.832-2.44 3.438-4.334 4.104-.83.294-1.922.45-3.084.45-.83 0-.976-.048-.78-.244.048-.06.312-.51.595-1.019 1.532-2.801 2.342-6.014 2.342-9.334v-1.254h5.876l-.05 2.86Zm-6.12 17.875c0 .049-.136.313-.302.607a4.454 4.454 0 0 1-3.114 2.155c-.878.147-29.963.147-30.841 0a4.454 4.454 0 0 1-3.113-2.155c-.166-.294-.303-.558-.303-.607 0-.04 8.472-.069 18.837-.069s18.836.03 18.836.069Z"/></svg>