<svg xmlns="http://www.w3.org/2000/svg" width="25" height="24" fill="none"><path fill="#422700" d="M12.5 17.813c-.15 0-.287-.025-.412-.075a1.143 1.143 0 0 1-.375-.263L6.05 11.812a1.038 1.038 0 0 1-.319-.806 1.17 1.17 0 0 1 .357-.806 1.1 1.1 0 0 1 .806-.337 1.1 1.1 0 0 1 .806.337l3.675 3.713V1.124c0-.325.106-.594.319-.806.212-.213.481-.319.806-.319.325 0 .594.106.806.319.213.212.319.481.319.806v12.787l3.712-3.712a1.1 1.1 0 0 1 .807-.337 1.1 1.1 0 0 1 .806.337 1.1 1.1 0 0 1 .338.806 1.1 1.1 0 0 1-.338.806l-5.662 5.663c-.126.125-.25.212-.376.262-.125.05-.262.076-.412.076ZM2.75 24c-.6 0-1.125-.225-1.575-.675C.725 22.875.5 22.35.5 21.75v-4.238c0-.325.106-.593.319-.806.212-.212.481-.319.806-.319a1.093 1.093 0 0 1 1.125 1.125v4.238h19.5v-4.238c0-.325.106-.593.319-.806.212-.212.481-.319.806-.319a1.093 1.093 0 0 1 1.125 1.125v4.238c0 .6-.225 1.125-.675 1.575-.45.45-.975.675-1.575.675H2.75Z"/></svg>