<svg width="120" height="120" fill="none" xmlns="http://www.w3.org/2000/svg"><g clip-path="url(#a)"><rect width="120" height="120" rx="16" fill="#150000"/><path d="M19 58.068c2.14-.69 4.08-1.174 5.818-1.45V13.761a32.868 32.868 0 0 1-5.35-1.519V11h21.133v1.38c-1.382.46-3.143.943-5.283 1.45v42.098h17.321c.09-1.196.513-2.737 1.27-4.624.803-1.932 1.517-3.29 2.14-4.072h2.208L57.053 59.31H19v-1.242ZM98 42.816H72.787c.09 4.002 1.026 7.338 2.81 10.006 1.827 2.67 4.525 4.003 8.091 4.003 1.828 0 3.835-.322 6.02-.966 2.184-.69 4.056-1.633 5.617-2.83l1.003 2.416c-1.516 1.288-3.611 2.37-6.286 3.244-2.63.874-5.484 1.311-8.56 1.311-3.924 0-7.313-.736-10.166-2.208-2.853-1.473-5.038-3.543-6.554-6.212-1.516-2.714-2.274-5.843-2.274-9.386 0-5.705 1.65-10.099 4.95-13.181 3.299-3.129 7.913-4.693 13.843-4.693 3.7 0 6.799.759 9.296 2.277 2.541 1.473 4.413 3.45 5.617 5.935C97.398 35.017 98 37.778 98 40.814v2.002Zm-8.895-3.382c0-1.703-.267-3.45-.802-5.245-.49-1.84-1.315-3.382-2.475-4.624-1.159-1.242-2.675-1.864-4.547-1.864-2.452 0-4.392 1.105-5.819 3.313-1.382 2.208-2.229 5.015-2.54 8.42h16.183Z" fill="#FCF5EF"/><path d="M41.863 108c-7.795 0-13.72-2.155-17.777-6.465C20.029 97.225 18 91.213 18 83.5c0-7.668 2.029-13.656 6.085-17.967C28.142 61.178 33.977 59 41.59 59c3.829 0 7.042.454 9.64 1.361 2.645.908 4.901 2.246 6.77 4.015l-.957 9.936h-2.53c-.82-2.359-1.39-5.376-1.71-9.05-2.324-1.816-5.15-2.723-8.478-2.723-4.832 0-8.616 1.883-11.35 5.648-2.69 3.72-4.035 8.825-4.035 15.313 0 6.579 1.208 11.728 3.624 15.449 2.462 3.675 6.063 5.512 10.803 5.512 1.96 0 4.08-.34 6.36-1.021 2.279-.68 4.421-1.746 6.427-3.198l1.504 2.858c-1.823 1.543-4.102 2.745-6.837 3.607-2.735.862-5.721 1.293-8.958 1.293ZM71.849 101c-4.801 0-8.31-1.002-10.525-3.006C59.108 95.99 58 93.012 58 89.058c0-4.333 1.504-7.447 4.51-9.342 3.008-1.95 7.018-2.925 12.03-2.925h9.97v-5.605c0-5.47-2.98-8.205-8.942-8.205-2.057 0-4.273.352-6.647 1.056a38.604 38.604 0 0 0-6.49 2.437l-.632-3.412c2.426-1.3 5.143-2.302 8.15-3.006A41.51 41.51 0 0 1 79.289 59c5.381 0 9.602 1.056 12.662 3.168 3.112 2.113 4.669 4.956 4.669 8.53v25.753c2.163.487 3.957.975 5.381 1.462v.975l-17.49 1.706v-5.2c-1.53 1.842-3.428 3.25-5.697 4.225A17.966 17.966 0 0 1 71.849 101Zm4.59-4.224c1.477 0 2.98-.488 4.51-1.463 1.53-1.029 2.718-2.301 3.562-3.818V80.772h-7.202c-2.48 0-4.326.73-5.54 2.193-1.213 1.462-1.82 3.466-1.82 6.012 0 2.654.555 4.63 1.663 5.93 1.16 1.246 2.77 1.869 4.827 1.869Z" fill="#FCF5EF"/></g><defs><clipPath id="a"><path fill="#fff" d="M0 0h120v120H0z"/></clipPath></defs></svg>