<svg xmlns="http://www.w3.org/2000/svg" width="40" height="40" fill="none"><path fill="#8E413A" d="M1.5 15.667c-.433 0-.792-.158-1.075-.473C.142 14.88 0 14.481 0 14v-.556c0-4.037 1.75-7.287 5.25-9.75S13.667 0 20 0s11.25 1.231 14.75 3.694S40 9.407 40 13.444V14c0 .482-.142.88-.425 1.194a1.383 1.383 0 0 1-1.075.473h-37Zm1.6-3.334h33.8c-.1-2.555-1.708-4.694-4.825-6.416C28.958 4.194 24.933 3.333 20 3.333c-4.933 0-8.975.861-12.125 2.584-3.15 1.722-4.742 3.86-4.775 6.416ZM0 23.556c0-.334.117-.658.35-.973.233-.314.533-.564.9-.75.767-.296 1.525-.731 2.275-1.305s1.842-.861 3.275-.861c1.8 0 2.992.407 3.575 1.222.583.815 1.558 1.222 2.925 1.222 1.367 0 2.375-.407 3.025-1.222.65-.815 1.875-1.222 3.675-1.222 1.8 0 3.025.407 3.675 1.222.65.815 1.658 1.222 3.025 1.222s2.342-.407 2.925-1.222c.583-.815 1.775-1.222 3.575-1.222 1.433 0 2.525.287 3.275.86.75.575 1.508 1.01 2.275 1.306.367.186.667.426.9.723.233.296.35.63.35 1 0 .555-.175 1-.525 1.333-.35.333-.742.444-1.175.333-1.067-.296-1.908-.74-2.525-1.333S34.3 23 33.2 23c-1.367 0-2.342.407-2.925 1.222-.583.815-1.775 1.222-3.575 1.222-1.8 0-3.025-.407-3.675-1.222C22.375 23.407 21.367 23 20 23s-2.375.407-3.025 1.222c-.65.815-1.875 1.222-3.675 1.222-1.8 0-2.992-.407-3.575-1.222C9.142 23.407 8.167 23 6.8 23c-1.1 0-1.958.296-2.575.889-.617.593-1.458 1.037-2.525 1.333-.433.111-.825 0-1.175-.333C.175 24.556 0 24.11 0 23.556ZM3 40c-.8 0-1.5-.333-2.1-1-.6-.667-.9-1.444-.9-2.333v-3.778c0-.926.292-1.713.875-2.361.583-.648 1.292-.972 2.125-.972h34c.833 0 1.542.324 2.125.972.583.648.875 1.435.875 2.36v3.779c0 .889-.3 1.666-.9 2.333-.6.667-1.3 1-2.1 1H3Zm0-3.333h34v-3.778H3v3.778Z"/></svg>