<svg xmlns="http://www.w3.org/2000/svg" width="64" height="64" fill="none"><path fill="url(#a)" d="M24.8 32a7.2 7.2 0 1 0 14.4 0 7.2 7.2 0 0 0-14.4 0Z"/><path fill="url(#b)" fill-rule="evenodd" d="M40.728 14.418c-2.278-.104-2.96-.126-8.728-.126-5.767 0-6.45.022-8.728.126-2.106.096-3.25.448-4.011.744-1.008.391-1.728.86-2.484 1.615-.756.756-1.224 1.476-1.615 2.484-.296.761-.648 1.905-.744 4.01-.104 2.278-.126 2.962-.126 8.729 0 5.767.022 6.45.126 8.728.096 2.106.448 3.25.744 4.011.391 1.008.86 1.728 1.615 2.484.756.755 1.476 1.224 2.484 1.615.761.296 1.905.648 4.01.744 2.278.104 2.961.126 8.729.126 5.768 0 6.45-.022 8.728-.126 2.106-.096 3.25-.448 4.011-.744 1.008-.391 1.728-.86 2.484-1.615.755-.756 1.224-1.476 1.615-2.484.296-.761.648-1.905.744-4.01.104-2.278.126-2.962.126-8.729 0-5.767-.022-6.45-.126-8.728-.096-2.106-.448-3.25-.744-4.011-.391-1.008-.86-1.728-1.615-2.484-.756-.756-1.476-1.224-2.484-1.615-.761-.296-1.905-.648-4.01-.744ZM20.908 32c0-6.126 4.966-11.092 11.092-11.092S43.092 25.874 43.092 32 38.126 43.092 32 43.092 20.908 38.126 20.908 32Zm22.622-8.938a2.592 2.592 0 1 0 0-5.184 2.592 2.592 0 0 0 0 5.184Z" clip-rule="evenodd"/><path fill="url(#c)" fill-rule="evenodd" d="M12.8 0C5.73 0 0 5.73 0 12.8v38.4C0 58.27 5.73 64 12.8 64h38.4C58.27 64 64 58.27 64 51.2V12.8C64 5.73 58.27 0 51.2 0H12.8Zm10.294 10.53c2.304-.105 3.04-.13 8.906-.13 5.866 0 6.602.025 8.906.13 2.299.105 3.869.47 5.243 1.004 1.42.552 2.625 1.29 3.826 2.491 1.2 1.201 1.939 2.406 2.491 3.826.534 1.374.9 2.944 1.004 5.243.105 2.304.13 3.04.13 8.906 0 5.866-.025 6.602-.13 8.906-.105 2.299-.47 3.869-1.004 5.243-.552 1.42-1.29 2.625-2.491 3.826-1.201 1.2-2.406 1.94-3.826 2.491-1.374.534-2.944.9-5.243 1.004-2.304.105-3.04.13-8.906.13-5.866 0-6.602-.025-8.906-.13-2.299-.105-3.869-.47-5.243-1.004-1.42-.552-2.625-1.29-3.826-2.491-1.2-1.201-1.94-2.406-2.491-3.826-.534-1.374-.9-2.944-1.004-5.243-.105-2.304-.13-3.04-.13-8.906 0-5.866.025-6.602.13-8.906.105-2.299.47-3.869 1.004-5.243.552-1.42 1.29-2.625 2.491-3.826 1.201-1.2 2.406-1.939 3.826-2.491 1.374-.534 2.944-.9 5.243-1.004Z" clip-rule="evenodd"/><defs><linearGradient id="a" x1="32" x2="32" y1="0" y2="64" gradientUnits="userSpaceOnUse"><stop stop-color="#DD9428"/><stop offset="1" stop-color="#F90"/></linearGradient><linearGradient id="b" x1="32" x2="32" y1="0" y2="64" gradientUnits="userSpaceOnUse"><stop stop-color="#DD9428"/><stop offset="1" stop-color="#F90"/></linearGradient><linearGradient id="c" x1="32" x2="32" y1="0" y2="64" gradientUnits="userSpaceOnUse"><stop stop-color="#DD9428"/><stop offset="1" stop-color="#F90"/></linearGradient></defs></svg>