<svg xmlns="http://www.w3.org/2000/svg" width="268" height="68" fill="none"><path fill="#F3F2F1" d="M0 65.719c2.851-.878 5.353-1.463 7.506-1.755V8.95C4.54 8.365 2.211 7.75.524 7.107V5.703h25.748v1.58c-1.163.35-3.462.935-6.895 1.754v54.225h23.218c.116-1.404.64-3.276 1.57-5.615.932-2.34 1.776-4.007 2.532-5.002h2.531l-1.483 14.478H0v-1.404ZM95.205 45.889H62.124c.116 5.265 1.425 9.652 3.928 13.161 2.56 3.51 6.284 5.265 11.172 5.265 2.386 0 4.917-.41 7.594-1.228 2.735-.82 5.12-1.96 7.157-3.423l1.135 2.808c-1.862 1.58-4.452 2.896-7.769 3.949C82.083 67.473 78.533 68 74.693 68c-4.946 0-9.252-.936-12.918-2.808-3.608-1.872-6.401-4.504-8.38-7.896-1.92-3.452-2.88-7.43-2.88-11.933 0-7.254 2.066-12.84 6.197-16.76 4.19-3.977 10.009-5.966 17.457-5.966 4.713 0 8.641.966 11.783 2.896 3.143 1.872 5.47 4.387 6.983 7.546 1.513 3.1 2.27 6.58 2.27 10.441v2.369Zm-10.038-3.86c0-2.34-.35-4.68-1.047-7.02-.699-2.398-1.863-4.387-3.492-5.966-1.63-1.638-3.753-2.457-6.372-2.457-3.607 0-6.4 1.462-8.379 4.387-1.978 2.866-3.171 6.551-3.579 11.055h22.869ZM126.66 68c-9.717 0-17.078-2.778-22.083-8.336-5.004-5.556-7.506-13.307-7.506-23.251 0-9.886 2.531-17.607 7.594-23.164 5.062-5.615 12.307-8.423 21.733-8.423 4.597 0 8.496.585 11.697 1.755 3.258 1.111 6.022 2.749 8.292 4.913l-1.048 12.109h-2.88c-.873-2.516-1.542-6.2-2.008-11.056-3.026-2.398-6.692-3.597-10.998-3.597-6.517 0-11.55 2.486-15.1 7.458-3.491 4.913-5.237 11.582-5.237 20.005 0 8.599 1.6 15.326 4.801 20.18 3.2 4.856 8.03 7.283 14.489 7.283 2.386 0 5.004-.41 7.856-1.228a28.265 28.265 0 0 0 8.117-3.949l1.658 3.247c-2.211 1.93-5.004 3.422-8.379 4.475C134.283 67.473 130.617 68 126.66 68ZM162.745 68c-9.951 0-14.926-4.27-14.926-12.81 0-4.621 1.63-7.956 4.888-10.003 3.259-2.047 7.565-3.07 12.918-3.07h11.696V35.71c0-3.159-.931-5.47-2.793-6.932-1.804-1.462-4.335-2.193-7.594-2.193-2.327 0-4.771.35-7.331 1.053-2.503.702-4.801 1.58-6.896 2.632l-.698-3.334c2.56-1.346 5.441-2.399 8.641-3.159 3.2-.76 6.488-1.14 9.863-1.14 5.644 0 10.096 1.14 13.355 3.421 3.316 2.282 4.975 5.323 4.975 9.125V63.35c2.211.468 4.189.965 5.935 1.491v.966l-17.457 1.666v-5.878c-1.978 2.164-4.248 3.773-6.808 4.826A19.836 19.836 0 0 1 162.745 68Zm4.364-4.124c1.862 0 3.782-.614 5.761-1.842 1.978-1.229 3.462-2.72 4.451-4.475V45.977h-8.99c-3.026 0-5.324.819-6.895 2.457-1.513 1.579-2.27 3.802-2.27 6.668 0 2.983.698 5.206 2.095 6.668 1.455 1.404 3.404 2.106 5.848 2.106Z"/><path fill="#F3F2F1" d="M220.469 8.072c-2.328 0-4.19.848-5.586 2.545-1.397 1.696-2.095 4.24-2.095 7.633v5.177h12.918v3.948h-12.918v36.677c3.084.526 5.557 1.111 7.419 1.754v1.317h-25.923v-1.404c3.782-1.112 6.11-1.697 6.982-1.755V27.375h-8.204v-3.948h8.204v-3.51c0-5.206 1.31-9.154 3.928-11.845 2.677-2.749 6.314-4.124 10.911-4.124 4.131 0 7.71.556 10.736 1.667l-.699 3.51c-1.92-.702-3.811-1.053-5.673-1.053Z"/><path fill="#F3F2F1" d="m240.68 15.881-1.92-2.72L249.234 2.72c.524-.585 1.222-1.17 2.095-1.755A5.26 5.26 0 0 1 254.384 0c1.222 0 2.124.322 2.705.965.582.644.873 1.404.873 2.281 0 1.697-1.28 3.305-3.84 4.826l-13.442 7.81ZM268 45.89h-33.081c.117 5.265 1.426 9.652 3.928 13.161 2.56 3.51 6.285 5.265 11.172 5.265 2.386 0 4.917-.41 7.594-1.228 2.735-.82 5.121-1.96 7.157-3.423l1.135 2.808c-1.862 1.58-4.451 2.896-7.768 3.949-3.259 1.052-6.808 1.579-10.649 1.579-4.946 0-9.252-.936-12.918-2.808-3.608-1.872-6.401-4.504-8.379-7.896-1.92-3.452-2.881-7.43-2.881-11.933 0-7.254 2.066-12.84 6.198-16.76 4.189-3.977 10.008-5.966 17.457-5.966 4.713 0 8.641.966 11.783 2.896 3.142 1.872 5.47 4.387 6.983 7.546 1.513 3.1 2.269 6.58 2.269 10.441v2.369Zm-10.038-3.86c0-2.34-.349-4.68-1.047-7.02-.698-2.398-1.862-4.387-3.491-5.966-1.63-1.638-3.754-2.457-6.372-2.457-3.608 0-6.401 1.462-8.379 4.387-1.979 2.866-3.172 6.551-3.579 11.055h22.868Z"/></svg>