<svg xmlns="http://www.w3.org/2000/svg" width="352" height="88" fill="none"><path fill="#241500" d="M0 85.048c3.745-1.136 7.031-1.893 9.86-2.271V11.582C5.96 10.825 2.903 10.03.687 9.197V7.381h33.82v2.044c-1.53.454-4.548 1.21-9.058 2.27v70.173h30.495c.153-1.816.841-4.239 2.064-7.267 1.223-3.028 2.33-5.185 3.324-6.472h3.325L62.71 86.865H0v-1.817ZM125.045 59.386h-43.45c.153 6.813 1.873 12.49 5.16 17.032 3.362 4.542 8.254 6.813 14.674 6.813 3.133 0 6.458-.53 9.973-1.59 3.593-1.06 6.726-2.536 9.401-4.428l1.49 3.634c-2.445 2.043-5.846 3.747-10.203 5.11C107.81 87.318 103.148 88 98.104 88c-6.496 0-12.152-1.211-16.967-3.634-4.739-2.422-8.407-5.828-11.006-10.219-2.522-4.466-3.783-9.614-3.783-15.443 0-9.386 2.713-16.615 8.14-21.687 5.502-5.148 13.145-7.722 22.928-7.722 6.191 0 11.35 1.25 15.477 3.748 4.127 2.422 7.184 5.677 9.171 9.765 1.987 4.012 2.981 8.516 2.981 13.512v3.066Zm-13.184-4.996c0-3.028-.459-6.056-1.376-9.084-.917-3.104-2.445-5.678-4.585-7.721-2.14-2.12-4.93-3.18-8.37-3.18-4.738 0-8.406 1.893-11.005 5.678-2.598 3.709-4.165 8.478-4.7 14.307h30.036ZM166.36 88c-12.764 0-22.432-3.596-29.005-10.787-6.572-7.191-9.859-17.222-9.859-30.09 0-12.793 3.325-22.786 9.974-29.977 6.649-7.267 16.165-10.9 28.546-10.9 6.038 0 11.158.756 15.362 2.27 4.28 1.438 7.91 3.558 10.891 6.359l-1.376 15.67h-3.783c-1.146-3.256-2.025-8.025-2.637-14.308-3.974-3.103-8.789-4.655-14.445-4.655-8.56 0-15.171 3.217-19.833 9.652-4.585 6.358-6.878 14.988-6.878 25.889 0 11.127 2.102 19.833 6.305 26.116 4.204 6.283 10.547 9.424 19.031 9.424 3.133 0 6.572-.53 10.317-1.59a37.345 37.345 0 0 0 10.662-5.11l2.178 4.202c-2.904 2.498-6.573 4.428-11.005 5.791C176.372 87.32 171.557 88 166.36 88ZM213.754 88c-13.069 0-19.603-5.526-19.603-16.578 0-5.98 2.14-10.295 6.42-12.945 4.28-2.649 9.935-3.974 16.967-3.974H232.9v-8.289c0-4.088-1.223-7.078-3.669-8.97-2.369-1.893-5.694-2.839-9.974-2.839-3.057 0-6.267.454-9.63 1.363-3.286.908-6.305 2.044-9.056 3.406l-.918-4.315c3.363-1.74 7.146-3.103 11.35-4.087a56.64 56.64 0 0 1 12.955-1.476c7.413 0 13.26 1.476 17.54 4.428 4.356 2.952 6.534 6.889 6.534 11.809v36.449c2.905.606 5.503 1.249 7.796 1.93v1.25L232.9 87.318V79.71c-2.599 2.8-5.58 4.883-8.942 6.245A26.398 26.398 0 0 1 213.754 88Zm5.732-5.337c2.446 0 4.968-.795 7.567-2.384 2.598-1.59 4.547-3.52 5.847-5.791V59.499h-11.809c-3.974 0-6.993 1.06-9.056 3.18-1.987 2.044-2.981 4.92-2.981 8.63 0 3.86.917 6.737 2.751 8.63 1.911 1.816 4.471 2.724 7.681 2.724Z"/><path fill="#241500" d="M289.571 10.447c-3.057 0-5.503 1.097-7.337 3.292-1.834 2.196-2.751 5.488-2.751 9.88v6.698h16.967v5.11h-16.967V82.89c4.05.682 7.299 1.439 9.744 2.271v1.704h-34.048v-1.817c4.967-1.439 8.025-2.195 9.171-2.271v-47.35h-10.776v-5.11h10.776v-4.541c0-6.738 1.72-11.847 5.159-15.33 3.516-3.557 8.292-5.336 14.33-5.336 5.426 0 10.127.719 14.101 2.157l-.917 4.542c-2.522-.908-5.006-1.362-7.452-1.362Z"/><path fill="#241500" d="m316.117 20.552-2.522-3.52L327.352 3.52c.688-.757 1.605-1.514 2.751-2.271C331.326.416 332.664 0 334.116 0c1.605 0 2.789.416 3.554 1.249a4.222 4.222 0 0 1 1.146 2.952c0 2.196-1.681 4.277-5.044 6.246l-17.655 10.105ZM352 59.386h-43.449c.153 6.813 1.872 12.49 5.159 17.032 3.362 4.542 8.254 6.813 14.674 6.813 3.133 0 6.458-.53 9.974-1.59 3.592-1.06 6.725-2.536 9.4-4.428l1.491 3.634c-2.446 2.043-5.847 3.747-10.204 5.11-4.279 1.362-8.942 2.043-13.986 2.043-6.496 0-12.152-1.211-16.967-3.634-4.738-2.422-8.407-5.828-11.005-10.219-2.523-4.466-3.784-9.614-3.784-15.443 0-9.386 2.714-16.615 8.14-21.687 5.503-5.148 13.146-7.722 22.928-7.722 6.191 0 11.35 1.25 15.477 3.748 4.127 2.422 7.184 5.677 9.171 9.765C351.006 46.82 352 51.324 352 56.32v3.066Zm-13.184-4.996c0-3.028-.458-6.056-1.376-9.084-.917-3.104-2.445-5.678-4.585-7.721-2.14-2.12-4.93-3.18-8.369-3.18-4.739 0-8.407 1.893-11.006 5.678-2.598 3.709-4.165 8.478-4.7 14.307h30.036Z"/></svg>