<svg xmlns="http://www.w3.org/2000/svg" width="40" height="40" fill="none"><path fill="#8E413A" d="M7.766 40c-.86 0-1.618-.25-2.273-.75s-1.02-1.133-1.094-1.9L.02 1.65C-.053 1.183.068.792.386.475.704.158 1.126 0 1.65 0H38.35c.524 0 .945.158 1.263.475.318.317.44.708.365 1.175L35.6 37.35c-.075.767-.44 1.4-1.094 1.9-.655.5-1.412.75-2.273.75H7.766Zm-3.03-27.5h9.54a8.243 8.243 0 0 1 2.61-1.475A9.287 9.287 0 0 1 20 10.5c1.085 0 2.123.175 3.115.525.991.35 1.861.842 2.61 1.475h9.54L36.443 3H3.557l1.178 9.5ZM20 22.5c1.422 0 2.619-.442 3.592-1.325.972-.883 1.459-1.942 1.459-3.175 0-1.267-.487-2.333-1.46-3.2-.972-.867-2.15-1.3-3.535-1.3-1.422 0-2.628.433-3.62 1.3-.991.867-1.487 1.917-1.487 3.15 0 1.267.496 2.342 1.487 3.225.992.883 2.18 1.325 3.564 1.325Zm-14.928-7L7.766 37h24.468l2.638-21.5h-6.96c.188.4.319.8.394 1.2.075.4.112.833.112 1.3 0 2.1-.814 3.875-2.441 5.325-1.628 1.45-3.62 2.175-5.977 2.175s-4.35-.725-5.977-2.175c-1.627-1.45-2.441-3.225-2.441-5.325 0-.467.037-.9.112-1.3.075-.4.206-.8.393-1.2H5.072ZM7.766 37h4.321-.505 16.836-.505 4.321H7.766Z"/></svg>