<svg xmlns="http://www.w3.org/2000/svg" width="200" height="100" fill="none"><path fill="#4B2521" d="M45.681 30.99H34.825c-.199-1.342-.604-2.534-1.215-3.575a9.205 9.205 0 0 0-2.355-2.7c-.958-.74-2.065-1.31-3.32-1.704-1.24-.394-2.587-.591-4.041-.591-2.627 0-4.916.623-6.866 1.87-1.95 1.23-3.462 3.03-4.536 5.398-1.074 2.351-1.61 5.208-1.61 8.57 0 3.456.536 6.36 1.61 8.712 1.09 2.351 2.611 4.127 4.56 5.326 1.95 1.2 4.206 1.8 6.768 1.8 1.437 0 2.767-.182 3.99-.545 1.24-.363 2.338-.892 3.297-1.586a9.288 9.288 0 0 0 2.38-2.58c.644-1.01 1.09-2.163 1.338-3.457l10.856.047c-.28 2.226-.983 4.372-2.107 6.44-1.107 2.052-2.602 3.89-4.486 5.516-1.867 1.61-4.098 2.888-6.692 3.835-2.578.931-5.495 1.397-8.75 1.397-4.528 0-8.576-.979-12.145-2.936-3.553-1.957-6.362-4.79-8.428-8.499C1.024 48.02 0 43.53 0 38.258c0-5.288 1.041-9.786 3.123-13.495 2.082-3.709 4.908-6.534 8.477-8.475 3.57-1.957 7.585-2.936 12.046-2.936 2.941 0 5.668.395 8.18 1.184 2.528.79 4.767 1.941 6.717 3.456A17.989 17.989 0 0 1 43.3 23.51c1.24 2.178 2.033 4.671 2.38 7.48ZM64.11 14.015V62.5H53.377V14.015H64.11ZM72.94 62.5V14.015h34.205v8.452H83.672V34.02h21.713v8.452H83.672v11.576h23.572V62.5H72.94ZM115.677 62.5V14.015h20.028c3.833 0 7.105.655 9.815 1.965 2.726 1.294 4.8 3.133 6.221 5.516 1.438 2.368 2.157 5.153 2.157 8.357 0 3.22-.727 5.99-2.182 8.31-1.454 2.304-3.56 4.072-6.32 5.303-2.743 1.231-6.064 1.846-9.964 1.846h-13.409v-8.238h11.674c2.049 0 3.751-.268 5.106-.805s2.363-1.342 3.024-2.415c.677-1.073 1.016-2.407 1.016-4 0-1.61-.339-2.968-1.016-4.073-.661-1.105-1.677-1.941-3.049-2.51-1.355-.583-3.065-.875-5.131-.875h-7.237V62.5h-10.733Zm27.414-22.064L155.707 62.5h-11.848l-12.343-22.064h11.575ZM189.02 27.96c-.199-1.91-1.05-3.394-2.553-4.451-1.504-1.058-3.545-1.587-6.122-1.587-1.752 0-3.231.237-4.437.71-1.206.458-2.132 1.098-2.776 1.918a4.477 4.477 0 0 0-.942 2.794c-.033.868.157 1.625.57 2.272.43.648 1.016 1.208 1.76 1.681.743.458 1.603.86 2.578 1.208a27.57 27.57 0 0 0 3.123.852l4.56 1.042c2.214.473 4.247 1.105 6.098 1.894 1.85.789 3.453 1.76 4.808 2.912a12.162 12.162 0 0 1 3.148 4.072c.76 1.562 1.148 3.353 1.165 5.374-.017 2.967-.81 5.54-2.379 7.717-1.554 2.163-3.801 3.843-6.742 5.043-2.925 1.184-6.453 1.776-10.584 1.776-4.098 0-7.667-.6-10.708-1.8-3.024-1.2-5.387-2.975-7.089-5.326-1.685-2.368-2.569-5.295-2.652-8.783h10.386c.115 1.625.603 2.982 1.462 4.071.876 1.074 2.041 1.887 3.495 2.439 1.471.537 3.131.805 4.982.805 1.818 0 3.396-.253 4.734-.758 1.355-.505 2.404-1.207 3.148-2.107a4.726 4.726 0 0 0 1.115-3.101c0-1.09-.338-2.005-1.016-2.746-.661-.742-1.636-1.373-2.925-1.894-1.272-.521-2.833-.995-4.684-1.42l-5.528-1.327c-4.279-.994-7.658-2.548-10.137-4.663s-3.71-4.964-3.693-8.547c-.017-2.935.801-5.5 2.454-7.694 1.669-2.194 3.957-3.906 6.865-5.137 2.909-1.231 6.213-1.847 9.915-1.847 3.767 0 7.056.616 9.865 1.847 2.825 1.23 5.023 2.943 6.593 5.137 1.57 2.194 2.379 4.735 2.429 7.623H189.02ZM.843 97.222c0-1.534 1.302-2.778 2.908-2.778h190.49c1.607 0 2.909 1.244 2.909 2.778S195.848 100 194.241 100H3.751c-1.606 0-2.908-1.244-2.908-2.778ZM.843 2.778C.843 1.244 2.145 0 3.75 0h190.49c1.607 0 2.909 1.244 2.909 2.778s-1.302 2.778-2.909 2.778H3.751C2.145 5.556.843 4.312.843 2.778ZM33.09 87.757c-1.013 0-1.911-.162-2.696-.484-.778-.329-1.394-.822-1.848-1.48-.448-.664-.672-1.496-.672-2.495 0-.842.155-1.552.465-2.13a3.85 3.85 0 0 1 1.28-1.412 6.164 6.164 0 0 1 1.88-.818 12.73 12.73 0 0 1 2.272-.385 34.327 34.327 0 0 0 2.18-.246c.55-.093.95-.22 1.197-.385a.819.819 0 0 0 .383-.72v-.05c0-.506-.183-.897-.548-1.174-.365-.276-.857-.414-1.477-.414-.668 0-1.205.138-1.61.415a1.82 1.82 0 0 0-.775 1.144l-4.658-.158a5.136 5.136 0 0 1 1.064-2.466c.578-.73 1.37-1.302 2.375-1.716 1.012-.421 2.227-.632 3.646-.632 1.012 0 1.945.115 2.798.345.854.224 1.598.553 2.231.987a4.532 4.532 0 0 1 1.467 1.578c.35.625.526 1.338.526 2.14V87.5h-4.75v-2.111h-.124a4.338 4.338 0 0 1-2.623 2.101c-.586.178-1.247.267-1.983.267Zm1.56-3.157c.543 0 1.032-.105 1.466-.316.44-.21.791-.5 1.053-.868.262-.375.393-.809.393-1.302v-1.44c-.145.072-.32.138-.527.197-.2.06-.42.115-.661.168-.241.052-.49.099-.744.138-.255.04-.499.076-.733.108a4.725 4.725 0 0 0-1.219.336c-.33.151-.585.348-.764.592-.172.237-.258.52-.258.848 0 .5.186.881.558 1.144.378.263.857.395 1.435.395ZM50.709 67.298V87.5h-5.05V67.298h5.05ZM53.923 87.5V72.349h5.05V87.5h-5.05Zm2.53-16.917c-.709 0-1.318-.224-1.828-.671-.51-.454-.764-1-.764-1.638 0-.63.255-1.17.764-1.617.51-.454 1.119-.68 1.828-.68.716 0 1.326.226 1.828.68.51.447.764.986.764 1.618 0 .637-.254 1.183-.764 1.637-.502.447-1.112.67-1.828.67ZM62.188 87.5V72.349h4.802v2.781h.175a4.33 4.33 0 0 1 1.674-2.18c.785-.532 1.72-.799 2.809-.799 1.101 0 2.044.27 2.83.81.784.538 1.284 1.262 1.497 2.17h.165c.296-.902.875-1.622 1.735-2.161.86-.546 1.876-.819 3.047-.819 1.5 0 2.72.46 3.656 1.381.936.914 1.404 2.17 1.404 3.768v10.2h-5.05v-9.095c0-.756-.203-1.332-.61-1.726-.405-.401-.932-.602-1.58-.602-.695 0-1.242.217-1.641.651-.393.428-.589 1.003-.589 1.727V87.5h-4.854v-9.144c0-.704-.2-1.26-.599-1.667-.4-.408-.926-.612-1.58-.612-.44 0-.83.102-1.167.306-.337.197-.603.48-.795.848-.186.369-.28.803-.28 1.302V87.5h-5.05ZM96.527 87.786c-1.66 0-3.092-.312-4.296-.937a6.634 6.634 0 0 1-2.768-2.693c-.64-1.17-.96-2.561-.96-4.173 0-1.565.323-2.933.97-4.103a6.84 6.84 0 0 1 2.737-2.742c1.177-.658 2.565-.987 4.162-.987 1.13 0 2.162.168 3.098.503a6.693 6.693 0 0 1 2.427 1.49c.682.657 1.212 1.47 1.591 2.436.378.96.568 2.062.568 3.305v1.203H90.268v-2.801h9.089a2.625 2.625 0 0 0-.382-1.371 2.548 2.548 0 0 0-1.023-.938c-.427-.23-.92-.345-1.477-.345-.564 0-1.07.122-1.518.365a2.757 2.757 0 0 0-1.064.977c-.261.407-.399.871-.413 1.39v2.852c0 .618.128 1.16.382 1.627.255.46.617.819 1.085 1.075.468.257 1.026.385 1.673.385.447 0 .853-.06 1.218-.178s.679-.292.94-.522c.262-.23.458-.513.589-.849l4.637.129a5.377 5.377 0 0 1-1.27 2.594c-.647.73-1.498 1.299-2.551 1.706-1.054.401-2.272.602-3.656.602ZM111.685 78.859V87.5h-5.05V72.349h4.802v2.781h.176a4.29 4.29 0 0 1 1.797-2.18c.847-.532 1.855-.799 3.026-.799 1.115 0 2.083.24 2.902.72a4.901 4.901 0 0 1 1.921 1.993c.461.848.688 1.841.681 2.979V87.5h-5.05v-8.71c.007-.842-.217-1.5-.671-1.973-.448-.473-1.071-.71-1.869-.71-.53 0-.999.112-1.405.335-.399.217-.709.53-.929.937-.214.408-.324.901-.331 1.48ZM134.021 72.349v3.55h-10.007v-3.55h10.007Zm-7.911-3.63h5.05v14.017c0 .295.049.535.145.72a.887.887 0 0 0 .444.384c.193.073.424.109.692.109.193 0 .396-.017.609-.05.221-.039.386-.072.496-.098l.764 3.482c-.241.066-.581.148-1.022.247a8.88 8.88 0 0 1-1.56.187c-1.184.053-2.199-.079-3.046-.395-.84-.322-1.484-.822-1.931-1.499-.441-.677-.655-1.529-.641-2.555v-14.55ZM143.832 87.786c-1.666 0-3.098-.326-4.296-.977a6.884 6.884 0 0 1-2.757-2.742c-.641-1.177-.961-2.541-.961-4.093 0-1.559.32-2.924.961-4.094a6.804 6.804 0 0 1 2.757-2.742c1.198-.658 2.63-.987 4.296-.987 1.667 0 3.095.329 4.286.987a6.728 6.728 0 0 1 2.758 2.742c.647 1.17.971 2.535.971 4.094 0 1.551-.324 2.916-.971 4.093a6.807 6.807 0 0 1-2.758 2.743c-1.191.65-2.619.976-4.286.976Zm.031-3.64c.606 0 1.119-.177 1.539-.532.42-.356.74-.849.961-1.48.227-.632.34-1.361.34-2.19 0-.842-.113-1.578-.34-2.21-.221-.63-.541-1.124-.961-1.48-.42-.354-.933-.532-1.539-.532-.626 0-1.156.178-1.59.533-.427.355-.754.848-.981 1.48-.221.63-.331 1.367-.331 2.209 0 .829.11 1.558.331 2.19.227.631.554 1.124.981 1.48.434.355.964.532 1.59.532ZM168.283 76.975l-4.637.118a1.613 1.613 0 0 0-.393-.838 2.105 2.105 0 0 0-.836-.582 2.97 2.97 0 0 0-1.177-.217c-.586 0-1.085.111-1.498.335-.406.224-.606.526-.599.908-.007.296.117.552.372.769.261.217.726.391 1.394.523l3.057.552c1.584.29 2.761.77 3.532 1.44.778.671 1.171 1.559 1.177 2.664-.006 1.039-.33 1.943-.97 2.712-.634.77-1.501 1.368-2.603 1.796-1.102.42-2.362.631-3.78.631-2.265 0-4.052-.444-5.36-1.332-1.301-.894-2.045-2.09-2.231-3.59l4.989-.119c.11.553.395.974.857 1.263.461.29 1.05.434 1.766.434.647 0 1.174-.115 1.58-.345.406-.23.613-.536.62-.917-.007-.343-.166-.615-.476-.82-.309-.21-.795-.374-1.456-.492l-2.767-.504c-1.591-.276-2.775-.785-3.553-1.529-.778-.75-1.164-1.703-1.157-2.86-.007-1.013.276-1.878.847-2.594.571-.724 1.384-1.276 2.437-1.658 1.054-.381 2.296-.572 3.729-.572 2.148 0 3.841.43 5.081 1.292 1.239.855 1.924 2.032 2.055 3.532Z"/></svg>