<svg xmlns="http://www.w3.org/2000/svg" width="200" height="96" fill="none"><path fill="#4B2521" d="M0 47.072C0 15.691 11.377 0 34.133 0c7.146 0 14.48 1.138 22.002 3.413l3.668 1.138v20.62H45.133V14.649c-3.385-.759-6.582-1.233-9.591-1.422h-1.41c-6.394 0-11.19 2.512-14.387 7.537-3.197 5.025-4.795 13.794-4.795 26.31.188 14.79 1.88 24.554 5.077 29.295 1.693 2.465 3.62 4.171 5.783 5.12 2.163.853 4.936 1.28 8.322 1.28 7.71.189 29.384-4.874 37.094-7.34v12.66c-3.103 1.043-18.759 5.63-24.118 6.483-5.266.948-9.638 1.422-13.117 1.422-11.472.19-20.029-3.508-25.67-11.093C2.774 77.221 0 64.612 0 47.072ZM71.227 88.088V1.422h28.35c20.498 0 30.747 8.059 30.747 24.176 0 5.215-1.316 9.718-3.949 13.51-2.633 3.793-6.206 6.163-10.719 7.11 5.265.76 9.356 3.082 12.271 6.97 3.009 3.792 4.56 8.769 4.654 14.931 0 17.635-11.424 26.452-34.273 26.452 0 0-8.935-.36-14.454-1.736-5.107-1.273-12.627-4.747-12.627-4.747Zm29.196-6.316c6.206 0 10.625-1.375 13.258-4.124 2.633-2.75 3.949-6.4 3.949-10.95 0-4.646-1.457-8.012-4.372-10.098-2.821-2.085-7.334-3.128-13.54-3.128H85.896v28.3h14.527Zm15.515-55.036c0-8.343-5.125-12.515-15.374-12.515H85.896v26.452h13.54c11.001 0 16.502-4.646 16.502-13.937Z"/><path fill="#4B2521" d="M141.326 26.31C141.326 8.77 151.763 0 172.637 0c7.335 0 15.703 1.66 25.106 4.977l-3.244 12.942c-9.591-3.034-17.16-4.551-22.708-4.551-5.453-.095-9.403.806-11.847 2.702-2.445 1.896-3.668 5.214-3.668 9.955 0 3.223 1.364 5.973 4.091 8.248 2.727 2.18 7.334 4.124 13.822 5.83 9.873 2.655 16.643 6.069 20.31 10.24 3.667 4.172 5.501 10.381 5.501 18.63 0 17.918-10.625 26.878-31.876 26.878-7.052 0-31.884-7.367-42.603-10.4l4.803-11.605c-1.204 0 15.562 4.465 18.477 5.224 9.121 2.37 16.173 3.555 21.157 3.555 5.077 0 8.838-1.28 11.283-3.84 2.539-2.56 3.808-5.783 3.808-9.67 0-3.887-1.081-6.874-3.244-8.96-2.068-2.085-5.923-3.934-11.565-5.546-10.155-2.844-17.537-6.352-22.144-10.523-4.513-4.172-6.77-10.097-6.77-17.777Z"/></svg>