<svg xmlns="http://www.w3.org/2000/svg" width="50" height="50" fill="none"><path fill="#8E413A" d="M20.62.527c0 .84-.195 2.48-.39 3.33-.196.84-.529 1.817-1.174 3.516-.86 2.236-1.213 3.838-1.33 6.084l-.069 1.29h2.964v-.528c0-1.836.42-3.858 1.222-5.928 1.154-2.969 1.545-4.59 1.672-7.002L23.584 0H20.62v.527ZM26.488.527c0 .84-.195 2.48-.39 3.33-.196.84-.529 1.817-1.174 3.516-.86 2.236-1.213 3.838-1.33 6.084l-.069 1.29h2.963v-.528c0-1.836.42-3.858 1.223-5.928 1.154-2.969 1.545-4.59 1.672-7.002L29.452 0h-2.964v.527ZM32.356.527c0 .84-.195 2.48-.391 3.33-.196.84-.528 1.817-1.174 3.516-.86 2.236-1.212 3.838-1.33 6.084l-.068 1.29h2.963v-.528c0-1.836.42-3.858 1.223-5.928 1.154-2.969 1.545-4.59 1.672-7.002L35.319 0h-2.963v.527ZM23.828 17.773c-.987.176-2.21.684-3.09 1.29-.381.263-.45.283-.733.175-.177-.058-.773-.136-1.34-.166-2.68-.136-5.007 1.026-6.533 3.272-.362.517-.46.605-.714.605-.489 0-1.985.547-2.729.996-.89.547-1.907 1.553-2.425 2.432-.46.752-.997 2.227-.997 2.715 0 .254-.088.351-.607.713-1.652 1.113-2.738 2.705-3.159 4.609-.185.85-.166 2.676.05 3.242.097.283.068.361-.382 1.074-1.897 2.989-1.447 6.748 1.076 9.19 1.066 1.015 2.22 1.63 3.628 1.924.675.136 2.709.156 19.148.156 19.882 0 19.041.02 20.381-.498 1.682-.664 3.257-2.178 4.03-3.887.44-.967.567-1.64.567-2.94.01-1.005-.03-1.347-.216-1.952-.254-.811-.665-1.67-1.114-2.315-.264-.39-.284-.459-.176-.742.195-.537.234-2.373.068-3.164-.41-1.924-1.438-3.486-3.022-4.59-.665-.469-.763-.576-.763-.83 0-.479-.547-1.973-.997-2.715-.548-.889-1.555-1.904-2.435-2.422-.753-.459-2.23-.996-2.72-.996-.253 0-.351-.088-.713-.605-1.526-2.246-3.853-3.409-6.533-3.272-.567.03-1.164.098-1.33.166-.283.098-.362.078-.988-.332a7.927 7.927 0 0 0-2.23-1.006c-.606-.166-2.376-.244-3.002-.127Zm2.064 2.93c.84.156 1.555.567 2.376 1.348l.763.732.665-.303c.949-.439 1.477-.537 2.416-.488 1.809.117 3.188 1.201 3.911 3.106l.265.683h.811c1.614 0 2.582.361 3.521 1.309.949.957 1.32 1.953 1.32 3.525v.81l.685.264c1.907.723 2.992 2.1 3.1 3.926.068.918-.04 1.445-.48 2.393l-.302.664.733.762c.841.878 1.193 1.543 1.37 2.548.38 2.256-1.155 4.502-3.424 4.98-.743.157-36.468.157-37.201 0-.841-.185-1.546-.575-2.181-1.21-1.027-1.016-1.477-2.393-1.242-3.77.176-1.025.538-1.69 1.369-2.529.812-.82.782-.625.244-1.855-.244-.567-.273-.743-.273-1.72 0-1.044.01-1.093.361-1.816.587-1.171 1.37-1.855 2.729-2.382l.675-.254v-.81c0-1.602.362-2.57 1.31-3.526.939-.938 1.946-1.309 3.53-1.309h.812l.264-.683c.724-1.905 2.103-2.989 3.912-3.106.94-.049 1.467.049 2.416.488l.665.303.753-.723c1.281-1.22 2.582-1.65 4.127-1.357Z"/><path fill="#8E413A" d="M23.506 25.068c-1.242.147-2.005.284-2.964.528-6.327 1.62-11.354 6.806-12.762 13.174-.254 1.152-.46 2.675-.46 3.466v.44h2.905l.068-.938c.48-6.797 5.418-12.324 12.137-13.574.704-.137 1.428-.186 2.591-.186 1.164 0 1.888.05 2.592.186 6.719 1.25 11.657 6.777 12.137 13.574l.068.938h2.934l-.069-1.035c-.361-5.645-3.295-10.674-8.048-13.79-2.856-1.865-6.357-2.88-9.78-2.841-.577.01-1.183.039-1.35.058Z"/><path fill="#8E413A" d="M27.955 38.281h2.934v-2.93h-2.934v2.93ZM23.555 44.14h2.933v-2.93h-2.933v2.93Z"/></svg>