<svg xmlns="http://www.w3.org/2000/svg" width="40" height="36" fill="none"><path fill="url(#a)" d="M9.565 36c-3.188 0-5.604-1.05-7.246-3.15C.773 30.75 0 28.15 0 25.05c0-4.1 1.063-8.55 3.188-13.35C5.411 6.8 8.068 2.9 11.16 0l4.783 3.6C11.594 9 9.179 14.5 8.696 20.1c.773-.2 1.304-.3 1.594-.3 2.126 0 3.913.7 5.362 2.1 1.45 1.4 2.174 3.2 2.174 5.4 0 2.5-.773 4.6-2.319 6.3-1.449 1.6-3.43 2.4-5.942 2.4Zm22.174 0c-3.188 0-5.604-1.05-7.246-3.15-1.546-2.1-2.32-4.7-2.32-7.8 0-4.1 1.064-8.55 3.19-13.35C27.583 6.9 30.24 3 33.332 0l4.783 3.6C33.768 9 31.353 14.5 30.87 20.1c.772-.2 1.304-.3 1.594-.3 2.125 0 3.913.7 5.362 2.1C39.276 23.3 40 25.1 40 27.3c0 2.5-.773 4.6-2.319 6.3-1.45 1.6-3.43 2.4-5.942 2.4Z"/><defs><linearGradient id="a" x1="20" x2="20" y1="0" y2="36" gradientUnits="userSpaceOnUse"><stop stop-color="#DD9428"/><stop offset="1" stop-color="#F90"/></linearGradient></defs></svg>