<svg xmlns="http://www.w3.org/2000/svg" width="40" height="36" fill="none"><path fill="url(#a)" d="M30.435 36c3.188 0 5.604-1.05 7.246-3.15 1.546-2.1 2.319-4.7 2.319-7.8 0-4.1-1.063-8.55-3.188-13.35-2.223-4.9-4.88-8.8-7.971-11.7l-4.783 3.6c4.348 5.4 6.763 10.9 7.246 16.5-.773-.2-1.304-.3-1.594-.3-2.126 0-3.913.7-5.362 2.1-1.45 1.4-2.174 3.2-2.174 5.4 0 2.5.773 4.6 2.319 6.3 1.449 1.6 3.43 2.4 5.942 2.4ZM8.26 36c3.188 0 5.604-1.05 7.246-3.15 1.546-2.1 2.32-4.7 2.32-7.8 0-4.1-1.064-8.55-3.19-13.35C12.416 6.9 9.759 3 6.668 0L1.884 3.6C6.232 9 8.647 14.5 9.13 20.1c-.773-.2-1.304-.3-1.594-.3-2.125 0-3.913.7-5.362 2.1C.724 23.3 0 25.1 0 27.3c0 2.5.773 4.6 2.319 6.3 1.45 1.6 3.43 2.4 5.942 2.4Z"/><defs><linearGradient id="a" x1="20" x2="20" y1="0" y2="36" gradientUnits="userSpaceOnUse"><stop stop-color="#DD9428"/><stop offset="1" stop-color="#F90"/></linearGradient></defs></svg>