<svg xmlns="http://www.w3.org/2000/svg" width="64" height="64" fill="none"><path fill="url(#a)" d="M50.667 0H13.333C5.971 0 0 5.97 0 13.333v37.334C0 58.029 5.97 64 13.333 64h37.334C58.032 64 64 58.03 64 50.667V13.333C64 5.971 58.032 0 50.667 0Zm-.371 24.632c.557 12.312-8.624 26.04-24.88 26.04a24.764 24.764 0 0 1-13.419-3.933c4.646.546 9.28-.742 12.96-3.624a8.76 8.76 0 0 1-8.176-6.08 8.801 8.801 0 0 0 3.952-.15c-4.21-.845-7.114-4.637-7.021-8.693a8.71 8.71 0 0 0 3.963 1.096c-3.896-2.605-5-7.752-2.71-11.688 4.318 5.296 10.768 8.781 18.043 9.147C31.731 21.272 35.888 16 41.538 16a8.728 8.728 0 0 1 6.387 2.765 17.556 17.556 0 0 0 5.563-2.122 8.79 8.79 0 0 1-3.848 4.842 17.54 17.54 0 0 0 5.027-1.378 17.76 17.76 0 0 1-4.371 4.525Z"/><defs><linearGradient id="a" x1="32" x2="32" y1="0" y2="64" gradientUnits="userSpaceOnUse"><stop stop-color="#DD9428"/><stop offset="1" stop-color="#F90"/></linearGradient></defs></svg>