<svg xmlns="http://www.w3.org/2000/svg" width="200" height="160" fill="none"><path fill="#4B2521" d="M100 160c12.526 0 22.68-10.233 22.68-22.857 0-12.624-10.154-22.857-22.68-22.857-12.527 0-22.682 10.233-22.682 22.857C77.318 149.767 87.473 160 100 160Z"/><path fill="#4B2521" d="M100 76.19c-19.491 0-37.9 9.555-49.244 25.558-3.237 4.566-2.187 10.911 2.343 14.172a9.986 9.986 0 0 0 5.85 1.894c3.146 0 6.244-1.48 8.211-4.255C74.73 102.882 87.005 96.508 100 96.508c12.995 0 25.271 6.374 32.838 17.05 3.236 4.565 9.531 5.624 14.062 2.362 4.531-3.261 5.58-9.606 2.344-14.171C137.901 85.744 119.492 76.19 100 76.19Z"/><path fill="#4B2521" d="M100 38.095c-27.843 0-54.494 11.98-73.12 32.87-3.721 4.173-3.381 10.596.76 14.346a9.999 9.999 0 0 0 6.735 2.603c2.76 0 5.51-1.137 7.501-3.37 14.808-16.606 35.994-26.131 58.125-26.131 22.13 0 43.316 9.525 58.125 26.131a10.026 10.026 0 0 0 14.235.767c4.142-3.75 4.482-10.174.761-14.346-18.628-20.89-45.279-32.87-73.122-32.87Z"/><path fill="#4B2521" d="M197.114 41.08C171.309 14.59 136.82 0 100 0 63.182 0 28.693 14.59 2.887 41.082c-3.9 4.004-3.841 10.435.132 14.366a10.005 10.005 0 0 0 7.06 2.909c2.611 0 5.221-1.017 7.195-3.042C39.258 32.746 68.638 20.317 100 20.317c31.364 0 60.743 12.429 82.726 34.997a10.025 10.025 0 0 0 14.255.133c3.973-3.93 4.032-10.362.133-14.366Z"/></svg>